REM Ripping Tool: trurip

FILE "Dennou Tenshi - Digital Angel (1994)(Tokuma Shoten Intermedia)(JP).img" BINARY
  TRACK 01 AUDIO
    INDEX 01 00:00:00
  TRACK 02 MODE1/2352
    INDEX 00 02:03:68
    INDEX 01 02:06:68
  TRACK 03 AUDIO
    INDEX 00 13:48:07
    INDEX 01 13:50:07
  TRACK 04 AUDIO
    INDEX 01 24:06:62
  TRACK 05 AUDIO
    INDEX 01 29:14:55

REM DISC HASHES
REM CRC32 : 0dd0c2ec
REM MD5   : 2821b0853bccec717195ffda3c333135
REM SHA1  : d122a8cd0e5972b2347e381b663507edd1b4b64c

REM Gap Append Method: Prev [crc32]
REM Trk 01: 6d7874ea
REM Trk 02: 691b8030
REM Trk 03: 9dc3863e
REM Trk 04: 3d393f02
REM Trk 05: 65f5decd

REM Gap Append Method: Prev [md5]
REM Trk 01: 4268876bdc93c15e948df1f95861da9b
REM Trk 02: 445e42acd5a91ff402fbe276cbb8d34c
REM Trk 03: 15a11b28088998828f425993a6c32863
REM Trk 04: 2dc2d37fdbc933a6ea7ec47373aebeab
REM Trk 05: 5647d0bdc14b6cf3f3b68305215c3166

REM Gap Append Method: Prev [sha1]
REM Trk 01: 9f5b426393a7a62b1b67a3d70115ff8816ee77ed
REM Trk 02: fd10373116c731903cd6f78bd81e9caf945c3a7f
REM Trk 03: 7e1ef1347c6220239ace5d2425980535b59f272b
REM Trk 04: c29b86f16e9e9e1fa2ae9258831c18627187c4f6
REM Trk 05: f7ce4ef5360d97ae2e6e7afb12ac64aa735f1f94

REM Gap Append Method: None [crc32]
REM Trk 01: 8ecfde1d
REM Trk 02: bc2d7ffd
REM Trk 03: 9dc3863e
REM Trk 04: 3d393f02
REM Trk 05: 65f5decd
REM Gap 02: 28eec1d4
REM Gap 03: 7abe247f

REM Gap Append Method: None [md5]
REM Trk 01: c1407c0e448f0decda2249d520c299ad
REM Trk 02: 1c9680a08e0537f64dcb0fc245c259e7
REM Trk 03: 15a11b28088998828f425993a6c32863
REM Trk 04: 2dc2d37fdbc933a6ea7ec47373aebeab
REM Trk 05: 5647d0bdc14b6cf3f3b68305215c3166
REM Gap 02: bea8a203a3febf2a577e6d906bb2d7a6
REM Gap 03: 9df204fbc98bb8965081cb30a89715fc

REM Gap Append Method: None [sha1]
REM Trk 01: 7e6176b672f0a038f06edbbee86109187ff1a1fc
REM Trk 02: eb7e00056e9d929291b131336931e8a43f2ecf36
REM Trk 03: 7e1ef1347c6220239ace5d2425980535b59f272b
REM Trk 04: c29b86f16e9e9e1fa2ae9258831c18627187c4f6
REM Trk 05: f7ce4ef5360d97ae2e6e7afb12ac64aa735f1f94
REM Gap 02: 6c4fdc846044d29955a760b32c72b0c3e295b5b1
REM Gap 03: cbe29e0bd725ef1194f8c47619dd42078e841de2

REM Gap Append Method: Next [crc32]
REM Trk 01: 8ecfde1d
REM Trk 02: ba866214
REM Trk 03: 976aef59
REM Trk 04: 3d393f02
REM Trk 05: 65f5decd

REM Gap Append Method: Next [md5]
REM Trk 01: c1407c0e448f0decda2249d520c299ad
REM Trk 02: 6067b7ef91383a678fbcfa62af9fc6c7
REM Trk 03: 90152e27c36499b3290333aa335510ec
REM Trk 04: 2dc2d37fdbc933a6ea7ec47373aebeab
REM Trk 05: 5647d0bdc14b6cf3f3b68305215c3166

REM Gap Append Method: Next [sha1]
REM Trk 01: 7e6176b672f0a038f06edbbee86109187ff1a1fc
REM Trk 02: d384a61b0e8adac375783d002bd13acd6df20608
REM Trk 03: 9b1cceb1658986cda77cebeb992644601c9c827c
REM Trk 04: c29b86f16e9e9e1fa2ae9258831c18627187c4f6
REM Trk 05: f7ce4ef5360d97ae2e6e7afb12ac64aa735f1f94

